<svg width="1370" height="1024" viewBox="0 0 1370 1024" fill="none" xmlns="http://www.w3.org/2000/svg">
<path d="M25 153.5C27.368 153.5 29.639 154.422 31.3135 156.063C32.9879 157.704 33.9286 159.929 33.9286 162.25V164H16.0714V162.25C16.0714 159.929 17.0121 157.704 18.6865 156.063C20.361 154.422 22.632 153.5 25 153.5V153.5ZM37.5 164V162.25C37.5 159.001 36.183 155.885 33.8388 153.588C31.4946 151.291 28.3152 150 25 150C21.6848 150 18.5054 151.291 16.1612 153.588C13.817 155.885 12.5 159.001 12.5 162.25V164H0V199C0 200.857 0.752549 202.637 2.09209 203.95C3.43164 205.263 5.24845 206 7.14286 206H42.8571C44.7515 206 46.5684 205.263 47.9079 203.95C49.2474 202.637 50 200.857 50 199V164H37.5ZM3.57143 167.5H46.4286V199C46.4286 199.928 46.0523 200.818 45.3825 201.475C44.7128 202.131 43.8043 202.5 42.8571 202.5H7.14286C6.19566 202.5 5.28725 202.131 4.61748 201.475C3.9477 200.818 3.57143 199.928 3.57143 199V167.5Z" fill="black"/>
<path d="M28.8687 183.455C28.8612 182.144 29.4359 181.156 30.5964 180.427C29.9474 179.465 28.9654 178.936 27.671 178.834C26.4454 178.734 25.1044 179.573 24.6134 179.573C24.0946 179.573 22.908 178.869 21.9744 178.869C20.0476 178.9 18 180.457 18 183.627C18 184.563 18.1655 185.53 18.4966 186.526C18.9392 187.838 20.5349 191.051 22.1994 190.999C23.0698 190.978 23.6854 190.361 24.818 190.361C25.9172 190.361 26.4863 190.999 27.4571 190.999C29.1365 190.974 30.5797 188.053 31 186.738C28.7478 185.64 28.8687 183.523 28.8687 183.455V183.455ZM26.914 177.59C27.8569 176.433 27.7714 175.379 27.7435 175C26.9103 175.05 25.9469 175.587 25.3983 176.246C24.7938 176.954 24.4386 177.829 24.5149 178.815C25.415 178.886 26.2371 178.408 26.914 177.59V177.59Z" fill="black"/>
</svg>
