<svg width="256" height="256" viewBox="0 0 256 256" fill="none" xmlns="http://www.w3.org/2000/svg">
<path d="M226.5 72.7C225.393 70.879 223.845 69.3659 222 68.3L134 18.7C132.188 17.7197 130.16 17.2064 128.1 17.2064C126.04 17.2064 124.012 17.7197 122.2 18.7L34.2 68.2C32.3546 69.2659 30.8071 70.779 29.7 72.6C28.6705 74.4336 28.1202 76.4973 28.1 78.6V177.2C28.1115 179.33 28.6806 181.421 29.7508 183.263C30.821 185.105 32.355 186.635 34.2 187.7L122.2 237.2C123.908 238.17 125.836 238.686 127.8 238.7H128.4C130.352 238.605 132.262 238.094 134 237.2L222 187.7C223.866 186.659 225.417 185.134 226.49 183.287C227.563 181.439 228.12 179.337 228.1 177.2V78.7C228.08 76.5973 227.53 74.5336 226.5 72.7ZM126.2 25.7C126.783 25.3818 127.436 25.2102 128.1 25.2C128.796 25.2132 129.48 25.3842 130.1 25.7L216 74L177.3 96L88.3 47L126.2 25.7ZM129 123.4L40.3 74L80.1 51.6L169.1 100.7L129 123.4ZM38.2 180.8C37.5608 180.468 37.0263 179.964 36.6556 179.347C36.2849 178.729 36.0926 178.02 36.1 177.3V80.8L125 130.3L124.2 229.2L38.2 180.8ZM218.1 180.8L132.2 229.1L133 130.3L173.1 107.6V152.5C173.1 153.561 173.521 154.578 174.272 155.328C175.022 156.079 176.039 156.5 177.1 156.5C178.161 156.5 179.178 156.079 179.928 155.328C180.679 154.578 181.1 153.561 181.1 152.5V103L220.1 80.9V177.3C220.106 178.008 219.925 178.705 219.573 179.32C219.222 179.935 218.713 180.446 218.1 180.8Z" fill="black"/>
</svg>
